<svg width="27" height="27" viewBox="0 0 27 27" fill="none" xmlns="http://www.w3.org/2000/svg">
<path d="M19.125 2.25H7.875C4.7684 2.25 2.25 4.7684 2.25 7.875V19.125C2.25 22.2316 4.7684 24.75 7.875 24.75H19.125C22.2316 24.75 24.75 22.2316 24.75 19.125V7.875C24.75 4.7684 22.2316 2.25 19.125 2.25Z" fill="white" stroke="white" stroke-width="2" stroke-linecap="round" stroke-linejoin="round"/>
<path d="M18.0002 12.7913C18.139 13.7276 17.9791 14.6838 17.5431 15.524C17.1072 16.3641 16.4174 17.0454 15.572 17.471C14.7265 17.8965 13.7684 18.0446 12.8339 17.8943C11.8994 17.7439 11.0361 17.3027 10.3669 16.6334C9.69757 15.9641 9.25636 15.1008 9.10598 14.1663C8.95561 13.2318 9.10373 12.2737 9.52928 11.4283C9.95482 10.5828 10.6361 9.89305 11.4763 9.45712C12.3164 9.02118 13.2726 8.86126 14.2089 9.0001C15.1639 9.14172 16.0481 9.58674 16.7308 10.2694C17.4135 10.9521 17.8585 11.8363 18.0002 12.7913Z" stroke="#0E0E0E" stroke-width="2" stroke-linecap="round" stroke-linejoin="round"/>
<path d="M19.6875 7.3125H19.6987" stroke="#0E0E0E" stroke-width="2" stroke-linecap="round" stroke-linejoin="round"/>
</svg>
